<mxfile host="Electron" modified="2024-02-13T03:00:47.593Z" agent="Mozilla/5.0 (Macintosh; Intel Mac OS X 10_15_7) AppleWebKit/537.36 (KHTML, like Gecko) draw.io/23.0.2 Chrome/120.0.6099.109 Electron/28.1.0 Safari/537.36" etag="Y4i8k6clHaonUrvzeqS7" version="23.0.2" type="device">
  <diagram name="第 1 页" id="CHUmKa8lcoxoWRzL47iW">
    <mxGraphModel dx="2074" dy="1267" grid="1" gridSize="10" guides="1" tooltips="1" connect="1" arrows="1" fold="1" page="1" pageScale="1" pageWidth="827" pageHeight="1169" math="0" shadow="0">
      <root>
        <mxCell id="0" />
        <mxCell id="1" parent="0" />
        <mxCell id="HKw3VNUUjL-YUd-4L7_A-1" value="&lt;font style=&quot;font-size: 15px;&quot;&gt;sA&lt;/font&gt;" style="shape=ellipse;html=1;dashed=0;whiteSpace=wrap;perimeter=ellipsePerimeter;fillColor=#d5e8d4;strokeColor=#82b366;" vertex="1" parent="1">
          <mxGeometry x="160" y="350" width="130" height="60" as="geometry" />
        </mxCell>
        <mxCell id="HKw3VNUUjL-YUd-4L7_A-3" value="&lt;font style=&quot;font-size: 15px;&quot;&gt;sB&lt;/font&gt;" style="shape=ellipse;html=1;dashed=0;whiteSpace=wrap;perimeter=ellipsePerimeter;fillColor=#d5e8d4;strokeColor=#82b366;" vertex="1" parent="1">
          <mxGeometry x="380" y="350" width="130" height="60" as="geometry" />
        </mxCell>
        <mxCell id="HKw3VNUUjL-YUd-4L7_A-4" value="" style="endArrow=classic;html=1;rounded=0;exitX=0.5;exitY=1;exitDx=0;exitDy=0;entryX=0.5;entryY=0;entryDx=0;entryDy=0;strokeColor=#E22C2C;strokeWidth=2;" edge="1" parent="1" source="HKw3VNUUjL-YUd-4L7_A-1" target="HKw3VNUUjL-YUd-4L7_A-7">
          <mxGeometry width="50" height="50" relative="1" as="geometry">
            <mxPoint x="230" y="500" as="sourcePoint" />
            <mxPoint x="280" y="450" as="targetPoint" />
          </mxGeometry>
        </mxCell>
        <mxCell id="HKw3VNUUjL-YUd-4L7_A-6" value="" style="html=1;dashed=0;whiteSpace=wrap;rounded=1;" vertex="1" parent="1">
          <mxGeometry x="50" y="510" width="600" height="340" as="geometry" />
        </mxCell>
        <mxCell id="HKw3VNUUjL-YUd-4L7_A-7" value="&lt;font style=&quot;font-size: 15px;&quot;&gt;rA&lt;/font&gt;" style="shape=ellipse;html=1;dashed=0;whiteSpace=wrap;aspect=fixed;perimeter=ellipsePerimeter;fillColor=#d5e8d4;strokeColor=#82b366;" vertex="1" parent="1">
          <mxGeometry x="190" y="480" width="70" height="70" as="geometry" />
        </mxCell>
        <mxCell id="HKw3VNUUjL-YUd-4L7_A-8" value="&lt;font style=&quot;font-size: 15px;&quot;&gt;rB&lt;/font&gt;" style="shape=ellipse;html=1;dashed=0;whiteSpace=wrap;aspect=fixed;perimeter=ellipsePerimeter;fillColor=#d5e8d4;strokeColor=#82b366;" vertex="1" parent="1">
          <mxGeometry x="410" y="480" width="70" height="70" as="geometry" />
        </mxCell>
        <mxCell id="HKw3VNUUjL-YUd-4L7_A-9" value="" style="endArrow=classic;html=1;rounded=0;exitX=0.5;exitY=1;exitDx=0;exitDy=0;entryX=0.5;entryY=0;entryDx=0;entryDy=0;strokeColor=#e22c2c;strokeWidth=2;" edge="1" parent="1">
          <mxGeometry width="50" height="50" relative="1" as="geometry">
            <mxPoint x="444.5" y="410" as="sourcePoint" />
            <mxPoint x="444.5" y="480" as="targetPoint" />
          </mxGeometry>
        </mxCell>
        <mxCell id="HKw3VNUUjL-YUd-4L7_A-10" value="&lt;font style=&quot;font-size: 15px;&quot;&gt;matmul&lt;/font&gt;" style="ellipse;whiteSpace=wrap;html=1;fillColor=#dae8fc;strokeColor=#6c8ebf;" vertex="1" parent="1">
          <mxGeometry x="280" y="630" width="110" height="70" as="geometry" />
        </mxCell>
        <mxCell id="HKw3VNUUjL-YUd-4L7_A-12" value="" style="endArrow=classic;html=1;rounded=0;exitX=0.5;exitY=1;exitDx=0;exitDy=0;entryX=0;entryY=0.5;entryDx=0;entryDy=0;strokeWidth=2;strokeColor=#6666FF;" edge="1" parent="1" source="HKw3VNUUjL-YUd-4L7_A-7" target="HKw3VNUUjL-YUd-4L7_A-10">
          <mxGeometry width="50" height="50" relative="1" as="geometry">
            <mxPoint x="310" y="580" as="sourcePoint" />
            <mxPoint x="360" y="530" as="targetPoint" />
          </mxGeometry>
        </mxCell>
        <mxCell id="HKw3VNUUjL-YUd-4L7_A-13" value="" style="endArrow=classic;html=1;rounded=0;exitX=0.5;exitY=1;exitDx=0;exitDy=0;entryX=1;entryY=0.5;entryDx=0;entryDy=0;strokeColor=#6666FF;strokeWidth=2;" edge="1" parent="1" source="HKw3VNUUjL-YUd-4L7_A-8" target="HKw3VNUUjL-YUd-4L7_A-10">
          <mxGeometry width="50" height="50" relative="1" as="geometry">
            <mxPoint x="460" y="640" as="sourcePoint" />
            <mxPoint x="510" y="590" as="targetPoint" />
          </mxGeometry>
        </mxCell>
        <mxCell id="HKw3VNUUjL-YUd-4L7_A-15" value="&lt;span style=&quot;font-size: 15px;&quot;&gt;acc&lt;/span&gt;" style="shape=ellipse;html=1;dashed=0;whiteSpace=wrap;aspect=fixed;perimeter=ellipsePerimeter;fillColor=#d5e8d4;strokeColor=#82b366;" vertex="1" parent="1">
          <mxGeometry x="300" y="820" width="70" height="70" as="geometry" />
        </mxCell>
        <mxCell id="HKw3VNUUjL-YUd-4L7_A-16" value="" style="endArrow=classic;html=1;rounded=0;exitX=0.5;exitY=1;exitDx=0;exitDy=0;entryX=0.5;entryY=0;entryDx=0;entryDy=0;strokeWidth=2;strokeColor=#6666FF;" edge="1" parent="1" source="HKw3VNUUjL-YUd-4L7_A-10" target="HKw3VNUUjL-YUd-4L7_A-15">
          <mxGeometry width="50" height="50" relative="1" as="geometry">
            <mxPoint x="390" y="760" as="sourcePoint" />
            <mxPoint x="440" y="710" as="targetPoint" />
          </mxGeometry>
        </mxCell>
        <mxCell id="HKw3VNUUjL-YUd-4L7_A-17" value="&lt;font style=&quot;font-size: 15px;&quot;&gt;sC&lt;/font&gt;" style="shape=ellipse;html=1;dashed=0;whiteSpace=wrap;perimeter=ellipsePerimeter;fillColor=#d5e8d4;strokeColor=#82b366;" vertex="1" parent="1">
          <mxGeometry x="270" y="950" width="130" height="60" as="geometry" />
        </mxCell>
        <mxCell id="HKw3VNUUjL-YUd-4L7_A-18" value="" style="endArrow=classic;html=1;rounded=0;entryX=0.5;entryY=0;entryDx=0;entryDy=0;strokeWidth=2;strokeColor=#007FFF;fillColor=#b1ddf0;" edge="1" parent="1" target="HKw3VNUUjL-YUd-4L7_A-17">
          <mxGeometry width="50" height="50" relative="1" as="geometry">
            <mxPoint x="335" y="890" as="sourcePoint" />
            <mxPoint x="420" y="860" as="targetPoint" />
          </mxGeometry>
        </mxCell>
        <mxCell id="HKw3VNUUjL-YUd-4L7_A-19" value="&lt;h1&gt;&lt;font color=&quot;#cc6600&quot; size=&quot;1&quot; style=&quot;&quot;&gt;&lt;b style=&quot;font-size: 20px;&quot;&gt;RF Level&lt;/b&gt;&lt;/font&gt;&lt;/h1&gt;" style="text;html=1;strokeColor=none;fillColor=none;align=center;verticalAlign=middle;whiteSpace=wrap;rounded=0;" vertex="1" parent="1">
          <mxGeometry x="440" y="620" width="150" height="90" as="geometry" />
        </mxCell>
      </root>
    </mxGraphModel>
  </diagram>
</mxfile>
